<mxfile host="app.diagrams.net" modified="2022-06-10T05:00:33.715Z" agent="5.0 (Windows NT 10.0; Win64; x64) AppleWebKit/537.36 (KHTML, like Gecko) Chrome/102.0.0.0 Safari/537.36" etag="w94TpJIxBB7TpulBPgY1" version="19.0.3" type="github">
  <diagram id="GEBR8Ax__L0S2gC_lqhw" name="Page-1">
    <mxGraphModel dx="1483" dy="879" grid="1" gridSize="10" guides="1" tooltips="1" connect="1" arrows="1" fold="1" page="1" pageScale="1" pageWidth="827" pageHeight="1169" math="0" shadow="0">
      <root>
        <mxCell id="0" />
        <mxCell id="1" parent="0" />
        <mxCell id="8oDTFzYaeC3sgw6wL3v6-3" value="" style="edgeStyle=orthogonalEdgeStyle;rounded=0;orthogonalLoop=1;jettySize=auto;html=1;" edge="1" parent="1" source="8oDTFzYaeC3sgw6wL3v6-1" target="8oDTFzYaeC3sgw6wL3v6-2">
          <mxGeometry relative="1" as="geometry" />
        </mxCell>
        <mxCell id="8oDTFzYaeC3sgw6wL3v6-1" value="START" style="ellipse;whiteSpace=wrap;html=1;" vertex="1" parent="1">
          <mxGeometry x="230" y="80" width="120" height="80" as="geometry" />
        </mxCell>
        <mxCell id="8oDTFzYaeC3sgw6wL3v6-28" style="edgeStyle=orthogonalEdgeStyle;rounded=0;orthogonalLoop=1;jettySize=auto;html=1;entryX=0.5;entryY=0;entryDx=0;entryDy=0;" edge="1" parent="1" source="8oDTFzYaeC3sgw6wL3v6-2" target="8oDTFzYaeC3sgw6wL3v6-6">
          <mxGeometry relative="1" as="geometry" />
        </mxCell>
        <mxCell id="8oDTFzYaeC3sgw6wL3v6-2" value="Buy coins" style="whiteSpace=wrap;html=1;" vertex="1" parent="1">
          <mxGeometry x="230" y="200" width="120" height="60" as="geometry" />
        </mxCell>
        <mxCell id="8oDTFzYaeC3sgw6wL3v6-29" style="edgeStyle=orthogonalEdgeStyle;rounded=0;orthogonalLoop=1;jettySize=auto;html=1;entryX=1;entryY=0.5;entryDx=0;entryDy=0;" edge="1" parent="1" source="8oDTFzYaeC3sgw6wL3v6-4" target="8oDTFzYaeC3sgw6wL3v6-6">
          <mxGeometry relative="1" as="geometry">
            <Array as="points">
              <mxPoint x="470" y="430" />
            </Array>
          </mxGeometry>
        </mxCell>
        <mxCell id="8oDTFzYaeC3sgw6wL3v6-4" value="Enter coupon code" style="whiteSpace=wrap;html=1;" vertex="1" parent="1">
          <mxGeometry x="410" y="300" width="120" height="60" as="geometry" />
        </mxCell>
        <mxCell id="8oDTFzYaeC3sgw6wL3v6-9" value="" style="edgeStyle=orthogonalEdgeStyle;rounded=0;orthogonalLoop=1;jettySize=auto;html=1;" edge="1" parent="1" source="8oDTFzYaeC3sgw6wL3v6-6" target="8oDTFzYaeC3sgw6wL3v6-8">
          <mxGeometry relative="1" as="geometry" />
        </mxCell>
        <mxCell id="8oDTFzYaeC3sgw6wL3v6-6" value="Check-out form" style="whiteSpace=wrap;html=1;" vertex="1" parent="1">
          <mxGeometry x="230" y="400" width="120" height="60" as="geometry" />
        </mxCell>
        <mxCell id="8oDTFzYaeC3sgw6wL3v6-11" value="" style="edgeStyle=orthogonalEdgeStyle;rounded=0;orthogonalLoop=1;jettySize=auto;html=1;" edge="1" parent="1" source="8oDTFzYaeC3sgw6wL3v6-8" target="8oDTFzYaeC3sgw6wL3v6-10">
          <mxGeometry relative="1" as="geometry" />
        </mxCell>
        <mxCell id="8oDTFzYaeC3sgw6wL3v6-8" value="Payment via payment gateway" style="whiteSpace=wrap;html=1;" vertex="1" parent="1">
          <mxGeometry x="230" y="490" width="120" height="60" as="geometry" />
        </mxCell>
        <mxCell id="8oDTFzYaeC3sgw6wL3v6-24" style="edgeStyle=orthogonalEdgeStyle;rounded=0;orthogonalLoop=1;jettySize=auto;html=1;entryX=0.5;entryY=0;entryDx=0;entryDy=0;" edge="1" parent="1" source="8oDTFzYaeC3sgw6wL3v6-10" target="8oDTFzYaeC3sgw6wL3v6-12">
          <mxGeometry relative="1" as="geometry" />
        </mxCell>
        <mxCell id="8oDTFzYaeC3sgw6wL3v6-10" value="Success" style="rhombus;whiteSpace=wrap;html=1;" vertex="1" parent="1">
          <mxGeometry x="250" y="580" width="80" height="80" as="geometry" />
        </mxCell>
        <mxCell id="8oDTFzYaeC3sgw6wL3v6-15" value="" style="edgeStyle=orthogonalEdgeStyle;rounded=0;orthogonalLoop=1;jettySize=auto;html=1;" edge="1" parent="1" source="8oDTFzYaeC3sgw6wL3v6-12" target="8oDTFzYaeC3sgw6wL3v6-32">
          <mxGeometry relative="1" as="geometry">
            <mxPoint x="400" y="760" as="targetPoint" />
          </mxGeometry>
        </mxCell>
        <mxCell id="8oDTFzYaeC3sgw6wL3v6-12" value="Acknowledgement via mail or sms" style="whiteSpace=wrap;html=1;" vertex="1" parent="1">
          <mxGeometry x="230" y="700" width="120" height="60" as="geometry" />
        </mxCell>
        <mxCell id="8oDTFzYaeC3sgw6wL3v6-17" value="" style="edgeStyle=orthogonalEdgeStyle;rounded=0;orthogonalLoop=1;jettySize=auto;html=1;exitX=0.5;exitY=1;exitDx=0;exitDy=0;" edge="1" parent="1" source="8oDTFzYaeC3sgw6wL3v6-32" target="8oDTFzYaeC3sgw6wL3v6-16">
          <mxGeometry relative="1" as="geometry">
            <mxPoint x="290" y="860" as="sourcePoint" />
          </mxGeometry>
        </mxCell>
        <mxCell id="8oDTFzYaeC3sgw6wL3v6-36" value="" style="edgeStyle=orthogonalEdgeStyle;rounded=0;orthogonalLoop=1;jettySize=auto;html=1;" edge="1" parent="1" source="8oDTFzYaeC3sgw6wL3v6-16" target="8oDTFzYaeC3sgw6wL3v6-35">
          <mxGeometry relative="1" as="geometry" />
        </mxCell>
        <mxCell id="8oDTFzYaeC3sgw6wL3v6-16" value="Add coins" style="whiteSpace=wrap;html=1;" vertex="1" parent="1">
          <mxGeometry x="230" y="890" width="120" height="60" as="geometry" />
        </mxCell>
        <mxCell id="8oDTFzYaeC3sgw6wL3v6-22" value="Yes" style="text;html=1;strokeColor=none;fillColor=none;align=center;verticalAlign=middle;whiteSpace=wrap;rounded=0;rotation=90;" vertex="1" parent="1">
          <mxGeometry x="280" y="660" width="40" height="20" as="geometry" />
        </mxCell>
        <mxCell id="8oDTFzYaeC3sgw6wL3v6-31" style="edgeStyle=orthogonalEdgeStyle;rounded=0;orthogonalLoop=1;jettySize=auto;html=1;exitX=0;exitY=1;exitDx=0;exitDy=0;entryX=0.061;entryY=0.495;entryDx=0;entryDy=0;entryPerimeter=0;" edge="1" parent="1" source="8oDTFzYaeC3sgw6wL3v6-25" target="8oDTFzYaeC3sgw6wL3v6-30">
          <mxGeometry relative="1" as="geometry">
            <Array as="points">
              <mxPoint x="400" y="620" />
            </Array>
          </mxGeometry>
        </mxCell>
        <mxCell id="8oDTFzYaeC3sgw6wL3v6-25" value="No" style="text;html=1;strokeColor=none;fillColor=none;align=center;verticalAlign=middle;whiteSpace=wrap;rounded=0;" vertex="1" parent="1">
          <mxGeometry x="330" y="600" width="50" height="20" as="geometry" />
        </mxCell>
        <mxCell id="8oDTFzYaeC3sgw6wL3v6-27" value="" style="endArrow=none;dashed=1;html=1;rounded=0;exitX=1;exitY=0.5;exitDx=0;exitDy=0;entryX=0.5;entryY=0;entryDx=0;entryDy=0;" edge="1" parent="1" source="8oDTFzYaeC3sgw6wL3v6-2" target="8oDTFzYaeC3sgw6wL3v6-4">
          <mxGeometry width="50" height="50" relative="1" as="geometry">
            <mxPoint x="380" y="240" as="sourcePoint" />
            <mxPoint x="430" y="190" as="targetPoint" />
            <Array as="points">
              <mxPoint x="470" y="230" />
            </Array>
          </mxGeometry>
        </mxCell>
        <mxCell id="8oDTFzYaeC3sgw6wL3v6-30" value="&lt;span style=&quot;&quot;&gt;give alert&amp;nbsp;transaction failed&lt;/span&gt;" style="shape=parallelogram;perimeter=parallelogramPerimeter;whiteSpace=wrap;html=1;fixedSize=1;" vertex="1" parent="1">
          <mxGeometry x="410" y="590" width="140" height="60" as="geometry" />
        </mxCell>
        <mxCell id="8oDTFzYaeC3sgw6wL3v6-32" value="&lt;span style=&quot;&quot;&gt;Generate&amp;nbsp;transaction&lt;/span&gt;&lt;br style=&quot;&quot;&gt;&lt;span style=&quot;&quot;&gt;receipt&lt;/span&gt;" style="shape=parallelogram;perimeter=parallelogramPerimeter;whiteSpace=wrap;html=1;fixedSize=1;" vertex="1" parent="1">
          <mxGeometry x="220" y="800" width="140" height="60" as="geometry" />
        </mxCell>
        <mxCell id="8oDTFzYaeC3sgw6wL3v6-38" value="" style="edgeStyle=orthogonalEdgeStyle;rounded=0;orthogonalLoop=1;jettySize=auto;html=1;" edge="1" parent="1" source="8oDTFzYaeC3sgw6wL3v6-35" target="8oDTFzYaeC3sgw6wL3v6-37">
          <mxGeometry relative="1" as="geometry" />
        </mxCell>
        <mxCell id="8oDTFzYaeC3sgw6wL3v6-35" value="Store transaction data in database" style="whiteSpace=wrap;html=1;" vertex="1" parent="1">
          <mxGeometry x="230" y="990" width="120" height="60" as="geometry" />
        </mxCell>
        <mxCell id="8oDTFzYaeC3sgw6wL3v6-37" value="STOP" style="ellipse;whiteSpace=wrap;html=1;" vertex="1" parent="1">
          <mxGeometry x="230" y="1080" width="120" height="60" as="geometry" />
        </mxCell>
        <mxCell id="8oDTFzYaeC3sgw6wL3v6-40" value="Transaction-flowchart" style="text;html=1;strokeColor=none;fillColor=none;align=center;verticalAlign=middle;whiteSpace=wrap;rounded=0;fontSize=28;fontStyle=7" vertex="1" parent="1">
          <mxGeometry x="199" y="20" width="430" height="30" as="geometry" />
        </mxCell>
      </root>
    </mxGraphModel>
  </diagram>
</mxfile>
